<svg xmlns="http://www.w3.org/2000/svg" viewBox="0 0 96 108" shape-rendering="crispEdges" role="img" aria-label="Fann avatar">
  <style>
    @keyframes wave {
      0%,55%,100% { transform: rotate(0deg); }
      65% { transform: rotate(22deg); }
      75% { transform: rotate(-4deg); }
      85% { transform: rotate(18deg); }
    }
    .arm { transform-box: view-box; transform-origin: 84px 66px; animation: wave 2.4s ease-in-out infinite; }
    @media (prefers-reduced-motion: reduce) { .arm { animation: none; } }
  </style>
  <g>
    <rect x="24" y="0" width="48" height="6" fill="#2a241e"/>
    <rect x="18" y="6" width="60" height="6" fill="#2a241e"/>
    <rect x="12" y="12" width="72" height="6" fill="#2a241e"/>
    <rect x="12" y="18" width="72" height="6" fill="#2a241e"/>
    <rect x="12" y="24" width="12" height="6" fill="#2a241e"/>
    <rect x="24" y="24" width="48" height="6" fill="#f1c6a0"/>
    <rect x="72" y="24" width="12" height="6" fill="#2a241e"/>
    <rect x="12" y="30" width="6" height="6" fill="#2a241e"/>
    <rect x="18" y="30" width="60" height="6" fill="#f1c6a0"/>
    <rect x="78" y="30" width="6" height="6" fill="#2a241e"/>
    <rect x="12" y="36" width="6" height="6" fill="#2a241e"/>
    <rect x="18" y="36" width="6" height="6" fill="#f1c6a0"/>
    <rect x="24" y="36" width="18" height="6" fill="#33302a"/>
    <rect x="42" y="36" width="12" height="6" fill="#f1c6a0"/>
    <rect x="54" y="36" width="18" height="6" fill="#33302a"/>
    <rect x="72" y="36" width="6" height="6" fill="#f1c6a0"/>
    <rect x="78" y="36" width="6" height="6" fill="#2a241e"/>
    <rect x="12" y="42" width="6" height="6" fill="#2a241e"/>
    <rect x="18" y="42" width="6" height="6" fill="#f1c6a0"/>
    <rect x="24" y="42" width="6" height="6" fill="#33302a"/>
    <rect x="30" y="42" width="6" height="6" fill="#2a241e"/>
    <rect x="36" y="42" width="6" height="6" fill="#33302a"/>
    <rect x="42" y="42" width="12" height="6" fill="#f1c6a0"/>
    <rect x="54" y="42" width="6" height="6" fill="#33302a"/>
    <rect x="60" y="42" width="6" height="6" fill="#2a241e"/>
    <rect x="66" y="42" width="6" height="6" fill="#33302a"/>
    <rect x="72" y="42" width="6" height="6" fill="#f1c6a0"/>
    <rect x="78" y="42" width="6" height="6" fill="#2a241e"/>
    <rect x="12" y="48" width="6" height="6" fill="#2a241e"/>
    <rect x="18" y="48" width="6" height="6" fill="#f1c6a0"/>
    <rect x="24" y="48" width="18" height="6" fill="#33302a"/>
    <rect x="42" y="48" width="12" height="6" fill="#f1c6a0"/>
    <rect x="54" y="48" width="18" height="6" fill="#33302a"/>
    <rect x="72" y="48" width="6" height="6" fill="#f1c6a0"/>
    <rect x="78" y="48" width="6" height="6" fill="#2a241e"/>
    <rect x="12" y="54" width="6" height="6" fill="#2a241e"/>
    <rect x="18" y="54" width="60" height="6" fill="#f1c6a0"/>
    <rect x="78" y="54" width="6" height="6" fill="#2a241e"/>
    <rect x="12" y="60" width="6" height="6" fill="#2a241e"/>
    <rect x="18" y="60" width="24" height="6" fill="#f1c6a0"/>
    <rect x="42" y="60" width="12" height="6" fill="#c07a64"/>
    <rect x="54" y="60" width="24" height="6" fill="#f1c6a0"/>
    <rect x="78" y="60" width="6" height="6" fill="#2a241e"/>
    <rect x="18" y="66" width="6" height="6" fill="#2a241e"/>
    <rect x="24" y="66" width="48" height="6" fill="#f1c6a0"/>
    <rect x="72" y="66" width="6" height="6" fill="#2a241e"/>
    <rect x="30" y="72" width="36" height="6" fill="#f1c6a0"/>
    <rect x="12" y="78" width="12" height="6" fill="#27416f"/>
    <rect x="24" y="78" width="18" height="6" fill="#e8eefa"/>
    <rect x="42" y="78" width="12" height="6" fill="#1d3160"/>
    <rect x="54" y="78" width="18" height="6" fill="#e8eefa"/>
    <rect x="72" y="78" width="12" height="6" fill="#27416f"/>
    <rect x="12" y="84" width="18" height="6" fill="#27416f"/>
    <rect x="30" y="84" width="12" height="6" fill="#e8eefa"/>
    <rect x="42" y="84" width="12" height="6" fill="#1d3160"/>
    <rect x="54" y="84" width="12" height="6" fill="#e8eefa"/>
    <rect x="66" y="84" width="18" height="6" fill="#27416f"/>
    <rect x="6" y="90" width="24" height="6" fill="#27416f"/>
    <rect x="30" y="90" width="12" height="6" fill="#e8eefa"/>
    <rect x="42" y="90" width="12" height="6" fill="#1d3160"/>
    <rect x="54" y="90" width="12" height="6" fill="#e8eefa"/>
    <rect x="66" y="90" width="24" height="6" fill="#27416f"/>
    <rect x="6" y="96" width="30" height="6" fill="#27416f"/>
    <rect x="36" y="96" width="6" height="6" fill="#e8eefa"/>
    <rect x="42" y="96" width="12" height="6" fill="#1d3160"/>
    <rect x="54" y="96" width="6" height="6" fill="#e8eefa"/>
    <rect x="60" y="96" width="30" height="6" fill="#27416f"/>
    <rect x="6" y="102" width="36" height="6" fill="#27416f"/>
    <rect x="42" y="102" width="12" height="6" fill="#1d3160"/>
    <rect x="54" y="102" width="36" height="6" fill="#27416f"/>
  </g>
  <g class="arm">
    <rect x="78" y="60" width="12" height="18" fill="#27416f"/>
    <rect x="84" y="42" width="12" height="18" fill="#f1c6a0"/>
  </g>
</svg>